<svg xmlns="http://www.w3.org/2000/svg" xmlns:v="http://schemas.microsoft.com/visio/2003/SVGExtensions/" width=".246in" height=".328in" viewBox="0 0 17.7088 23.5813" color-interpolation-filters="sRGB" class="st2"><v:documentProperties v:langID="1033" v:metric="true" v:viewMarkup="false"/><style type="text/css"><![CDATA[
		.st1 {fill:#000000;stroke:none;stroke-linecap:butt;stroke-width:0.0286625}
		.st2 {fill:none;fill-rule:evenodd;font-size:12px;overflow:visible;stroke-linecap:square;stroke-miterlimit:3}
	]]></style><g v:mID="0" v:index="1" v:groupContext="foregroundPage"><title>Page-1</title><v:pageProperties v:drawingScale=".039" v:pageScale=".039" v:drawingUnits="24" v:shadowOffsetX="8.504" v:shadowOffsetY="-8.504"/><g id="shape81-1" v:mID="81" v:groupContext="shape" transform="translate(.029 -.029)"><title>General practitioner</title><path d="M13.33 13.05c2.6 1.32 4.32 3.71 4.32 6.92v.1h-1.18v-.1c0-2.77-1.48-4.86-3.91-5.97-.24.23-.51.4-.78.57v5.6c.67.24 1.18.91 1.18 1.66 0 .98-.78 1.75-1.75 1.75-.98 0-1.76-.77-1.76-1.75 0-.78.51-1.42 1.18-1.66v-5.06c-1.65.51-3.2.37-4.72-.54v2.03c.57.13 1.08.4 1.48.81.54.54.88 1.28.88 2.09v2.93H7.09V19.5c0-2.33-3.55-2.33-3.55 0v2.93H2.36V19.5c0-.81.34-1.55.88-2.09.41-.41.91-.68 1.49-.81v-2.44c-2.2 1.19-3.55 3.18-3.55 5.81v2.46H0v-2.46c0-3.21 1.72-5.6 4.32-6.92-.51-.78-.78-1.72-.78-2.87V5.22c0-2.5 1.39-4.08 3.18-4.76.67-.27 1.41-.4 2.12-.4.75 0 1.45.13 2.13.4 1.79.71 3.17 2.3 3.17 4.76v4.96c0 1.15-.3 2.09-.77 2.87h-.04zm-.4-7.12H4.69v4.25c0 1.93 1.05 3.14 2.4 3.68.54.2 1.11.3 1.72.3.57 0 1.18-.1 1.72-.3 1.35-.54 2.4-1.75 2.4-3.68V5.93z" class="st1"/></g></g></svg>